<svg xmlns="http://www.w3.org/2000/svg" width="140" height="29" viewBox="0 0 140 29">
  <g fill="#333" fill-rule="evenodd">
    <path d="M6.55183432 18.3242714C6.5443787 18.3072857 6.53443787 18.2927857 6.52615385 18.2799429 6.51579882 18.2658571 6.50420118 18.2530143 6.48970414 18.2405857 6.48970414 18.2405857 6.38698225 18.2853286 6.34431953 18.3470571 6.26065089 18.4651286 6.42757396 18.7286143 6.42757396 18.7286143 6.28798817 18.6818 6.20142012 18.5649714 6.19769231 18.4850143 6.1943787 18.3768857 6.29544379 18.1361857 6.29544379 18.1361857 6.32692308 18.0396571 6.36005917 17.9025286 6.39319527 17.7600143 6.42633136 17.6204 6.45739645 17.4770571 6.50420118 17.3101 6.59905325 16.9815714 6.73739645 16.6103714 6.81568047 16.2797714 6.87491124 16.0365857 6.91923077 15.8219857 6.93372781 15.6765714 6.96934911 15.3219429 7.01242604 14.6545286 7.0364497 14.2153857 7.05011834 13.9809 7.04597633 14.0397286 7.04597633 14.0206714 7.04597633 13.9643286 7.07869822 13.3702429 7.36118343 13.1225 7.54798817 12.9605143 7.72319527 12.9878571 7.93775148 12.8855286 7.93775148 12.8855286 7.6312426 12.76 7.25390533 12.8441 7.25390533 12.8441 6.60195266 13.3561571 6.29213018 15.6409429 6.29213018 15.6409429 5.91147929 17.7674714 5.89905325 17.9845571 5.89366864 18.0972429 5.99928994 18.6349857 5.99928994 18.6349857 5.99928994 18.6349857 6.33023669 18.7783286 6.39982249 18.7646571 6.44289941 18.7493286 6.50088757 18.7460143 6.59905325 18.7190857 6.69597633 18.6913286 6.7564497 18.6847 6.92337278 18.7393857 6.52615385 18.5616571 6.60526627 18.4237 6.55183432 18.3242714M13.0315976 12.7662143C13.0315976 12.7343143 12.9736095 12.2512571 12.9736095 11.8825429 12.9719527 11.6936286 12.9694675 11.5357857 12.9678107 11.4831714 12.962426 11.3717286 12.8514201 11.4231 12.8298817 11.4657714 12.7752071 11.5664429 12.7511834 11.5449 12.7511834 11.5449 12.7511834 11.5449 12.7172189 11.5386857 12.7105917 11.6364571 12.6960947 11.5652 12.6882249 11.571 12.6671006 11.5498714 12.5867456 11.4732286 12.542426 11.7412714 12.542426 11.7412714 12.542426 11.7412714 12.5353846 11.7963714 12.5312426 11.9297714 12.5304142 11.9579429 12.5287574 11.9923286 12.5287574 12.0275429 12.5287574 12.1642571 12.5407692 12.4169714 12.6248521 12.6029857 12.6405917 12.6340571 12.6592308 12.6448286 12.6840828 12.6473143 12.6840828 12.6473143 12.657574 12.8362286 12.7172189 12.9282 12.8286391 13.1009571 12.8886982 13.0611857 12.8886982 13.0611857 13.087929 12.8963 13.0328402 12.8349857 13.0315976 12.7662143M8.37224852 12.3142286C8.37224852 12.4144857 8.40869822 12.5072857 8.46751479 12.5855857 8.36727811 12.6783857 8.25171598 12.8043286 8.22976331 12.8329143 8.18668639 12.8892571 8.09804734 12.9141143 8.09804734 12.9141143 8.09804734 12.9141143 8.00319527 13.4883143 8.21775148 13.4116714 8.21775148 13.4116714 8.25171598 13.2737143 8.36727811 13.2989857 8.56071006 13.3412429 8.61248521 13.2675 8.69076923 13.2070143 8.74295858 13.1680714 8.89911243 13.1999714 8.89911243 13.1999714 9.02088757 13.1734571 9.16502959 13.2331143 9.18946746 13.1225 9.18905325 13.1067571 9.18532544 13.0947429 9.18532544 13.0947429 9.08798817 13.0143714 8.81171598 13.0524857 8.81171598 13.0524857 8.81171598 13.0524857 8.8543787 13.0355 8.91319527 13.0276286 8.93307692 13.0239 8.97159763 13.0288714 8.97491124 12.9965571 8.97491124 12.9965571 8.99893491 12.9969714 9.12526627 13.0350857 9.22715976 13.0674 9.23378698 13.0164429 9.2404142 12.9965571 9.23792899 12.9576143 9.20893491 12.9311 9.20893491 12.9311 9.20893491 12.9311 9.07514793 12.8755857 9.01136095 12.8639857 8.94840237 12.8544571 8.77360947 12.8776571 8.77360947 12.8776571 8.77360947 12.8776571 8.77982249 12.8706143 8.88130178 12.8490714 8.91816568 12.8412 8.95461538 12.8412 8.95130178 12.8097143 8.95130178 12.8097143 9.02420118 12.8163429 9.12195266 12.8639857 9.18946746 12.8971286 9.22260355 12.8963 9.2408284 12.8855286 9.24745562 12.8747571 9.26360947 12.8610857 9.26609467 12.8507286 9.26609467 12.8428571 9.26609467 12.8349857 9.26609467 12.8279429 9.25822485 12.7716 9.2056213 12.7492286 9.2056213 12.7492286 9.2056213 12.7492286 8.99727811 12.6750714 8.94094675 12.6696857 8.88502959 12.6618143 8.70319527 12.7078 8.70319527 12.7078 8.7491716 12.6750714 8.80011834 12.6713429 8.85893491 12.6605714 8.94094675 12.6448286 8.93017751 12.6005 8.93017751 12.6005 8.93017751 12.6005 8.94798817 12.6261857 9.11242604 12.6746571 9.15757396 12.6891571 9.2756213 12.7492286 9.2408284 12.6415143 9.23213018 12.6274286 9.21100592 12.6029857 9.18946746 12.5847571 9.2416568 12.5110143 9.2747929 12.4215286 9.2764497 12.3237571 9.28142012 12.0698 9.08094675 11.8593429 8.83076923 11.8535429 8.80011834 11.8535429 8.77112426 11.8647286 8.74047337 11.8705286 8.74047337 11.8705286 8.74130178 11.8705286 8.74130178 11.8692857 8.62284024 12.0362429 8.47745562 12.1924286 8.37224852 12.3142286M8.66343195 12.1456143C8.70775148 12.1029429 8.76532544 12.0793286 8.82704142 12.0801571 8.95461538 12.0830571 9.05568047 12.1899429 9.05360947 12.3187857 9.05236686 12.3946 9.01467456 12.4571571 8.9595858 12.499 8.93680473 12.4915429 8.91816568 12.4878143 8.91319527 12.4840857 8.89289941 12.4720714 8.77568047 12.4799429 8.66591716 12.4828429 8.66343195 12.4803571 8.66011834 12.4787 8.65721893 12.4762143 8.61497041 12.4310571 8.59218935 12.3718143 8.59301775 12.3100857 8.59550296 12.2475286 8.61869822 12.1887 8.66343195 12.1456143M5.17627219 17.1004714C5.12822485 17.3859143 5.01970414 17.8838857 5.00272189 18.0632714 4.98739645 18.2426571 4.98076923 18.5616571 4.98076923 18.5616571 5.04828402 18.6018429 5.13319527 18.6329143 5.16384615 18.6486571L5.49727811 15.921C5.49727811 15.921 5.22556213 16.8154429 5.17627219 17.1004714"/>
    <path d="M19.7830769,13.0442 L19.6840828,7.30302857 L20.087929,7.30302857 L18.3445562,3.84664286 C18.5185207,3.75922857 18.6390533,3.57818571 18.6390533,3.3698 C18.6390533,3.07607143 18.3988166,2.83578571 18.1043195,2.83578571 C17.8098225,2.83578571 17.5704142,3.07607143 17.5704142,3.3698 C17.5704142,3.57818571 17.6901183,3.75922857 17.8632544,3.84664286 L16.1207101,7.30302857 L16.524142,7.30302857 L16.4951479,8.98337143 L16.3895266,8.57902857 C16.0407692,7.22472857 14.8126627,6.22505714 13.3517751,6.22505714 C13.3256805,6.22505714 13.2987574,6.22588571 13.2747337,6.22712857 C13.0328402,5.08411429 12.1679882,4.16937143 11.0546154,3.85658571 L11.0546154,2.72848571 L11.2223669,2.72848571 L10.3981065,1.09744286 C10.5352071,1.02784286 10.6284024,0.8874 10.6284024,0.725828571 C10.6284024,0.495071429 10.4415976,0.308228571 10.2113018,0.308228571 C9.98142012,0.308228571 9.79420118,0.495071429 9.79420118,0.725828571 C9.79420118,0.8874 9.88656805,1.02784286 10.0232544,1.09744286 L9.19982249,2.72848571 L9.36798817,2.72848571 L9.36798817,3.85658571 C8.25502959,4.16937143 7.39100592,5.08411429 7.14828402,6.22712857 C7.12260355,6.22588571 7.09650888,6.22505714 7.0704142,6.22505714 C5.60952663,6.22505714 4.38307692,7.22472857 4.03266272,8.57902857 L3.92662722,8.98337143 L3.89763314,7.30302857 L4.30065089,7.30302857 L2.55934911,3.84664286 C2.73289941,3.75922857 2.85177515,3.57818571 2.85177515,3.3698 C2.85177515,3.07607143 2.61402367,2.83578571 2.31786982,2.83578571 C2.02337278,2.83578571 1.7852071,3.07607143 1.7852071,3.3698 C1.7852071,3.57818571 1.90408284,3.75922857 2.07804734,3.84664286 L0.334674556,7.30302857 L0.73852071,7.30302857 L0.639940828,13.0442 L0.106863905,13.0442 L0,18.7866143 L4.63242604,18.7866143 L4.53301775,13.0442 L4.53301775,10.4296429 C4.53301775,10.0145286 4.64112426,9.38978571 4.75751479,8.97715714 C4.79727811,8.83961429 4.83952663,8.70621429 4.88384615,8.57902857 C5.20650888,7.68127143 6.06431953,7.03995714 7.0704142,7.03995714 C7.36905325,7.03995714 7.65443787,7.09712857 7.91538462,7.1978 C7.90213018,7.09381429 7.89343195,6.98817143 7.89343195,6.87921429 C7.89343195,5.59575714 8.9264497,4.55341429 10.2113018,4.55341429 C11.4949112,4.55341429 12.5287574,5.59575714 12.5287574,6.87921429 C12.5287574,6.98817143 12.5213018,7.09381429 12.5068047,7.1978 C12.7681657,7.09712857 13.0531361,7.03995714 13.3517751,7.03995714 C14.3586982,7.03995714 15.2160947,7.68127143 15.5383432,8.57902857 C15.5843195,8.70621429 15.6253254,8.83961429 15.6642604,8.97715714 C15.7823077,9.38978571 15.8891716,10.0145286 15.8891716,10.4296429 L15.8891716,13.0442 L15.7905917,18.7866143 L20.4221893,18.7866143 L20.3161538,13.0442 L19.7830769,13.0442 Z M1.91733728,8.59808571 L1.91816568,8.59808571 L1.91816568,8.53552857 C1.93349112,8.32631429 2.10662722,8.16184286 2.31786982,8.16184286 C2.42928994,8.16184286 2.52828402,8.20658571 2.60118343,8.27991429 C2.66745562,8.34702857 2.71094675,8.43485714 2.71798817,8.53552857 L2.71964497,8.53552857 L2.71964497,10.8016714 L1.91733728,10.8016714 L1.91733728,8.59808571 Z M1.73094675,17.6825429 L0.928639053,17.6825429 L0.928639053,15.5837714 C0.928639053,15.5734143 0.928639053,15.5630571 0.930295858,15.5539429 C0.945621302,15.3463857 1.1187574,15.1815 1.33,15.1815 C1.5404142,15.1815 1.71272189,15.3463857 1.72887574,15.5539429 C1.72887574,15.5630571 1.73094675,15.5734143 1.73094675,15.5837714 L1.73094675,17.6825429 Z M2.31786982,14.9113857 C1.98443787,14.9113857 1.71272189,14.6408571 1.71272189,14.3073571 C1.71272189,13.9734429 1.98443787,13.7025 2.31786982,13.7025 C2.65213018,13.7025 2.92218935,13.9734429 2.92218935,14.3073571 C2.92218935,14.6408571 2.65213018,14.9113857 2.31786982,14.9113857 L2.31786982,14.9113857 Z M3.71,17.6825429 L2.90934911,17.6825429 L2.90934911,15.5837714 C2.90934911,15.5734143 2.90934911,15.5630571 2.91017751,15.5539429 C2.92591716,15.3463857 3.09946746,15.1815 3.31029586,15.1815 C3.52153846,15.1815 3.69384615,15.3463857 3.7091716,15.5539429 C3.71,15.5630571 3.71,15.5734143 3.71,15.5837714 L3.71,17.6825429 Z M17.703787,8.53552857 L17.7046154,8.53552857 C17.712071,8.43485714 17.7555621,8.34702857 17.8205917,8.27991429 C17.8930769,8.20658571 17.9937278,8.16184286 18.1043195,8.16184286 C18.3168047,8.16184286 18.490355,8.32631429 18.5048521,8.53552857 L18.5048521,8.59808571 L18.5056805,8.59808571 L18.5056805,10.8016714 L17.703787,10.8016714 L17.703787,8.53552857 Z M17.5136686,17.6825429 L16.7113609,17.6825429 L16.7113609,15.5837714 C16.7113609,15.5734143 16.7126036,15.5630571 16.713432,15.5539429 C16.7295858,15.3463857 16.9010651,15.1815 17.1114793,15.1815 C17.3235503,15.1815 17.495858,15.3463857 17.5128402,15.5539429 C17.5128402,15.5630571 17.5136686,15.5734143 17.5136686,15.5837714 L17.5136686,17.6825429 Z M18.1043195,14.9113857 C17.7708876,14.9113857 17.4991716,14.6408571 17.4991716,14.3073571 C17.4991716,13.9734429 17.7708876,13.7025 18.1043195,13.7025 C18.4385799,13.7025 18.7094675,13.9734429 18.7094675,14.3073571 C18.7094675,14.6408571 18.4385799,14.9113857 18.1043195,14.9113857 L18.1043195,14.9113857 Z M19.4943787,17.6825429 L18.6908284,17.6825429 L18.6908284,15.5837714 C18.6908284,15.5734143 18.6924852,15.5630571 18.6924852,15.5539429 C18.7094675,15.3463857 18.8817751,15.1815 19.093432,15.1815 C19.3038462,15.1815 19.4761538,15.3463857 19.4931361,15.5539429 C19.4931361,15.5630571 19.4943787,15.5734143 19.4943787,15.5837714 L19.4943787,17.6825429 L19.4943787,17.6825429 Z"/>
    <path d="M11.0368047,11.5966857 C11.0732544,11.5991714 11.1266864,11.5929571 11.1759763,11.5730714 C11.2588166,11.5366143 11.3768639,11.4313857 11.4269822,11.3228429 C11.4464497,11.2072571 11.3669231,11.1202571 11.3143195,11.0966429 C11.2724852,11.078 11.2459763,11.0804857 11.202071,11.0949857 C11.1594083,11.1086571 11.0653846,11.1579571 11.0653846,11.1579571 C11.0956213,11.1281286 11.0815385,11.0668143 11.0815385,11.0668143 C11.1519527,11.1152857 11.4456213,10.9856143 11.3880473,10.6467286 C11.3768639,10.5763 11.3660947,10.5580714 11.3669231,10.5207857 C11.3685799,10.4636143 11.3760355,10.4180429 11.3669231,10.3753714 C11.3561538,10.3144714 11.3892899,10.2017857 11.3822485,10.1466857 C11.3768639,10.0907571 11.2919527,10.1044286 11.2579882,10.1189286 C11.1399408,10.1719571 11.1357988,10.3629429 11.1229586,10.4230143 C11.1229586,10.4230143 11.1055621,10.4188714 11.0856805,10.4085143 C11.0587574,10.3981571 11.0554438,10.3778571 11.0256213,10.3492714 C11.0107101,10.3360143 10.9543787,10.2680714 10.9311834,10.2353429 C10.9067456,10.2034429 10.7385799,10.0186714 10.6636095,9.94948571 C10.5911243,9.88402857 10.5422485,9.94492857 10.5385207,9.99215714 C10.5331361,10.0456 10.6768639,10.2473571 10.6768639,10.2473571 C10.7940828,10.4052 10.8276331,10.4188714 10.8276331,10.4188714 L10.7957396,10.4433143 C10.7957396,10.4433143 10.8098225,10.4246714 10.6457988,10.2473571 C10.6259172,10.2270571 10.4755621,10.0153571 10.4163314,9.95528571 C10.3550296,9.89107143 10.2904142,9.95611429 10.2792308,9.9789 C10.2419527,10.0588571 10.4863314,10.3509286 10.4863314,10.3509286 C10.5911243,10.5017286 10.6789349,10.5580714 10.6789349,10.5580714 L10.6433136,10.5891429 C10.6644379,10.5709143 10.4544379,10.3509286 10.4544379,10.3509286 C10.3686982,10.2622714 10.3007692,10.1504143 10.2361538,10.1007 C10.1512426,10.0398 10.1226627,10.1798286 10.166568,10.2415571 C10.1827219,10.2631 10.2129586,10.3223429 10.2726036,10.4047857 C10.3289349,10.4797714 10.5281657,10.6695143 10.5281657,10.6695143 L10.5086982,10.6844286 C10.4585799,10.6206286 10.3028402,10.4640286 10.1943195,10.3890429 C10.0866272,10.3136429 10.0559763,10.4105857 10.0833136,10.4636143 C10.1077515,10.5137429 10.2249704,10.6546 10.2518935,10.6865 C10.2804734,10.7184 10.4921302,10.8716857 10.5066272,10.8940571 C10.5314793,10.9325857 10.5894675,11.0133714 10.6027219,11.0303571 C10.6279882,11.0647429 10.703787,11.1728714 10.7497633,11.2097429 C10.7497633,11.2097429 10.8413018,11.2702286 10.8980473,11.2428857 C10.8462722,11.3887143 10.8955621,11.5536 11.0368047,11.5966857"/>
    <path d="M10.6739645 17.8184286C10.6507692 17.9456143 10.6259172 18.0910286 10.6139053 18.1544143 10.5107692 18.7306857 10.6366864 18.9382429 10.6366864 18.9382429 10.6366864 18.9382429 10.8276331 18.7866143 10.9257988 18.2099286 10.977574 17.9137143 11.1639645 16.8539714 11.3346154 15.8911714 11.284497 15.4325571 11.2571598 14.9992143 11.3702367 14.8952286 11.4389941 14.8322571 11.5719527 14.7262 11.5350888 14.7564429 11.6001183 14.3906286 11.6419527 14.1466143 11.6419527 14.1466143L12.1742012 14.3467143C11.9559172 14.4324714 11.8142604 14.5484714 11.6523077 14.6648857 11.3371006 15.1545714 11.4638462 15.7987857 11.4986391 16.0150429 11.5384024 16.269 11.4195266 16.6476571 11.4195266 16.6476571 11.4746154 17.2574857 11.5756805 17.6141857 11.5756805 17.6141857 11.5756805 17.6141857 11.702426 17.9323571 11.9327219 18.0106571 11.9327219 18.0106571 11.6875148 17.9721286 11.6477515 17.8934143 11.6477515 17.8934143 11.5856213 17.9547286 11.5611834 18.0172857 11.5611834 18.0172857 11.3300592 18.1743 11.4124852 18.3184714 11.3300592 18.4013286 11.325503 18.4162429 11.2219527 18.4817 11.1200592 18.5471571 11.1018343 18.5612429 10.9266272 18.6329143 10.8686391 18.6573571 10.7911834 18.7045857 10.767574 18.7460143 10.7597041 18.7775 10.7837278 18.7828857 10.7911834 18.7721143 10.8247337 18.7294429 10.8773373 18.7062429 10.8773373 18.7062429 10.8036095 18.7460143 10.8065089 18.7895143 10.8297041 18.8085714L10.8413018 18.8123C10.856213 18.8164429 10.8831361 18.8123 10.9129586 18.7567857 10.9257988 18.7302714 10.9535503 18.7062429 11.0160947 18.6855286 10.9999408 18.6958857 10.8831361 18.7439429 10.9332544 18.8176857 11.0069822 18.8508286 11.0450888 18.7530571 11.0604142 18.7373143 11.1121893 18.6855286 11.1573373 18.6847 11.2343787 18.6648143 11.0686982 18.7132857 11.0521302 18.7418714 11.0976923 18.8185143 11.1349704 18.8582857 11.2368639 18.8640857 11.3271598 18.8284571 11.4775148 18.8268 11.6970414 18.7079 11.8345562 18.7012714 11.8888166 18.6963 11.8888166 18.7025143 11.9753846 18.7302714 12.025503 18.7460143 12.171716 18.7460143 12.1978107 18.6963 12.2901775 18.5214714 11.9832544 18.3251 11.9285799 18.299 11.8747337 18.2716571 11.7430178 18.1784429 11.7430178 18.1784429 11.7430178 18.1784429 11.9194675 18.2774571 12.0677515 18.3271714 12.1766864 18.3694286 12.247929 18.3826857 12.2711243 18.3855857 12.4778107 18.4121 12.5797041 18.3097714 12.7752071 18.2944429 13.2407692 17.8718714 13.3294083 17.6556143 13.4752071 17.0093286 13.5356805 16.7524714 13.6392308 16.3576571 13.6653254 16.0515 13.6475148 16.4562571 13.6491716 16.5697714 13.6574556 16.7172571 13.6702959 16.9633429 13.6951479 17.7757571 13.6769231 17.9087429 13.6574556 18.0413143 13.5874556 18.0728 13.5874556 18.0728 13.5874556 18.0728 13.705503 18.3789571 13.9718343 18.4133429 14.0347929 18.4199714 14.1072781 18.4133429 14.1872189 18.3826857 14.1872189 18.3826857 14.4523077 18.5823714 14.8391716 18.4539429 14.9004734 18.4328143 14.9650888 18.4029857 15.0350888 18.3628 15.0802367 18.3358714 15.0864497 16.2495286 15.0632544 15.9727857 15.047929 15.7851143 15.0301183 15.7333286 14.9742012 15.6442571 14.903787 15.4930429 14.772071 15.3687571 14.772071 15.3687571 14.772071 15.3687571 14.693787 15.3211143 14.7045562 15.1864714 14.7219527 14.9756 14.7501183 14.9938286 14.8205325 15.0849714 14.9493491 15.2593857 14.9427219 15.4238571 14.9742012 15.6442571 14.9742012 15.6442571 15.0371598 15.7291857 15.1257988 15.8841286 15.1759172 15.9727857 15.1543787 16.1347714 15.1626627 16.269 15.1626627 16.269 15.1759172 18.1279 15.1684615 18.3097714 15.1928994 18.2430714 15.2500592 18.1734714 15.2500592 18.1734714 15.2500592 18.1734714 15.2562722 15.8795714 15.1933136 15.3919571 15.1767456 15.2664286 15.1175148 15.2088429 15.1030178 15.1007143 15.0591124 14.7721857 15.047929 14.6847714 14.9638462 14.5592429 14.9638462 14.5592429 15.0607692 14.6379571 15.1506509 14.8591857 15.2115385 15.0095714 15.26 15.2241714 15.3101183 15.5253571 15.3407692 15.6956286 15.4037278 15.9616 15.4037278 15.9616 15.4550888 15.1897857 15.3043195 14.8670571 15.3043195 14.8670571 15.2562722 14.7340714 15.1759172 14.5410143 15.0939053 14.4105143 15.0089941 14.2692429 14.922426 14.1607 14.9008876 14.1275571 14.574497 13.5960286 14.5310059 13.4303143 14.2008876 12.7906571 13.8707692 12.151 13.9527811 11.6132571 13.9527811 11.6132571 13.9527811 11.6132571 14.0149112 11.8431857 14.0973373 11.9119571 14.1259172 11.9339143 14.197574 12.0851286 14.1669231 12.2839857 14.156568 12.3424 14.1752071 12.5317286 14.3442012 12.8731 14.5504734 13.2882143 14.7314793 13.6105286 14.8528402 13.7605 14.9650888 13.8997 15.0251479 13.8823 15.0251479 13.8823 14.9650888 13.3909571 14.5430178 11.8112857 14.5430178 11.8112857 14.5430178 11.8112857 14.7024852 11.9074 14.772071 12.1878714 14.7960947 12.2810857 14.8408284 12.5897286 14.9249112 12.9190857 15.0384024 13.3706571 15.3730769 14.5658714 15.3942012 14.5994286 15.2728402 13.8019286 15.3088757 13.8019286 15.2314201 13.4833429 15.1846154 13.2890429 15.204497 13.0156143 15.1668047 12.7479857 15.109645 12.3332857 15.0930769 12.1965714 15.0876923 12.1174429 15.0404734 11.3236714 14.7915385 11.2723 14.7915385 11.2723 14.903787 10.9711143 14.759645 10.8932286 14.759645 10.8932286 14.6942012 10.8489 14.5521302 10.8008429 14.5011834 10.8236286 14.3968047 10.8919857 14.4224852 10.7387 14.3189349 10.7888286 14.2543195 10.8207286 14.0915385 10.8745857 14.0915385 10.8745857 14.3980473 10.6384429 14.269645 10.5667714 14.269645 10.5667714 13.989645 10.9512286 13.6002959 10.9127 13.6002959 10.9127 13.4830769 10.9243 13.3683432 10.9226429 13.3012426 10.9147714 13.2536095 10.9093857 13.225858 10.9508143 13.2059763 11.0001143 13.1993491 10.9918286 13.1923077 10.9802286 13.1823669 10.9752571 13.2063905 10.9408714 13.225858 10.9073143 13.1628994 10.8613286 13.1401183 10.8451714 13.1252071 10.8269429 13.1136095 10.8091286 13.1136095 10.8091286 13.0626627 10.701 13.1078107 10.6206286 13.143432 10.5609714 13.1943787 10.5170571 13.1943787 10.4354429 13.1102959 10.4300571 12.9881065 10.4619571 12.9421302 10.5129143 12.8949112 10.5638714 12.863432 10.6061286 12.8013018 10.6633 12.7495266 10.7155 12.7172189 10.7801286 12.6894675 10.8866 12.6654438 10.9843714 12.7876331 11.0361571 12.7876331 11.0361571 12.7876331 11.0361571 12.5370414 11.0030143 12.6861538 10.7925571 12.6621302 10.8161714 12.5647929 10.8534571 12.5051479 10.8982 12.445503 10.9450143 12.4115385 11.0668143 12.3750888 11.1314429 12.3378107 11.1969 12.2765089 11.3278143 12.239645 11.3704857 12.2031953 11.4123286 12.0888757 11.6389429 12.097574 11.7151714 12.1315385 11.6621429 12.254142 11.6078714 12.254142 11.6078714 12.3129586 11.5871571 12.3547929 11.5797 12.4123669 11.5871571 12.4711834 11.5942 12.4711834 11.6078714 12.5730769 11.5138286 12.6724852 11.4206143 12.7023077 11.3050286 12.824497 11.2250714 12.9015385 11.1753571 13.0050888 11.1339286 13.075503 11.0954 13.0804734 11.1227429 13.0966272 11.1438714 13.1198225 11.1513286 13.1397041 11.1567143 13.1591716 11.1505 13.1757396 11.1368286 13.166213 11.2246571 13.1521302 11.3742143 13.1492308 11.5163143 13.1484024 11.5908857 13.1492308 11.6625571 13.1571006 11.7238714 13.1856805 11.9707857 13.2357988 12.0855429 13.2656213 12.2019571 13.2656213 12.2019571 13.1078107 11.9446857 13.0895858 11.8079714 13.0895858 11.8079714 13.0779882 12.6709286 13.166213 12.8507286 13.1086391 12.8979571 13.0560355 12.9414571 13.0398817 12.9518143L13.0129586 12.9717C12.9823077 12.9957286 12.9131361 13.0458571 12.9131361 13.0458571 12.9065089 13.0491714 12.8978107 13.0533143 12.8886982 13.0611857 12.8207692 13.1026143 12.6774556 13.1871286 12.6468047 13.1987286 12.6120118 13.2153 12.5697633 13.2070143 12.5084615 13.2070143 12.4467456 13.2070143 12.4160947 13.2463714 12.377574 13.2844857 12.377574 13.2844857 12.2131361 13.3147286 12.171716 13.2890429 12.1435503 13.2728857 12.0433136 13.2024571 11.9666864 13.1465286 11.9298225 13.1204286 11.8995858 13.0976429 11.8838462 13.0839714 11.9592308 13.0611857 12.0205325 13.0197571 12.0321302 12.9592714 12.0375148 12.9219857 12.0221893 12.8855286 11.9994083 12.8507286 12.0018935 12.8507286 12.0010651 12.8507286 12.0031361 12.8503143L11.7430178 12.7065571C11.9327219 12.6854286 11.9704142 12.7285143 12.0549112 12.6543571 12.1530769 12.5665286 12.2939053 12.4426571 12.4165089 12.3424 12.5391124 12.2404857 12.5068047 12.0528143 12.5308284 11.9297714 12.5457396 11.4769571 12.097574 11.7151714 12.097574 11.7151714L12.0594675 11.8291C12.052426 11.8510571 11.986568 11.8680429 11.9704142 11.8576857 12.2955621 12.0743571 12.1128994 12.3332857 12.1128994 12.3332857 12.1128994 12.3332857 12.254142 12.0776714 11.9849112 11.9989571 11.6514793 11.9011857 11.5756805 11.6066286 11.5313609 11.5465571 11.4278107 11.4098429 11.3391716 11.5734857 11.2542604 11.5991714 11.193787 11.6174 11.1705917 11.6227857 11.0368047 11.5966857 10.9489941 11.5871571 10.9009467 11.5179714 10.8744379 11.4711571 10.8454438 11.4206143 10.8508284 11.3369286 10.8508284 11.3369286 10.8508284 11.3369286 10.7559763 11.4276571 10.8330178 11.5552571 10.9100592 11.6832714 10.9738462 11.9011857 10.994142 11.9765857 11.0152663 12.0515714 11.0798817 12.267 11.4452071 12.7049 11.4452071 12.7049 11.4630178 12.7210571 11.488284 12.7446714 11.4427219 12.7711857 11.4083432 12.8051571 11.4000592 12.8490714 11.3888757 12.9182571 11.4348521 12.9891 11.5168639 13.0379857 11.5160355 13.0437857 11.5135503 13.0504143 11.5131361 13.0549714 11.4315385 13.0906 11.3474556 13.1336857 11.3242604 13.1490143 11.2563314 13.1945857 11.2182249 13.2298 11.2078698 13.2712286 11.2078698 13.3300571 11.2439053 13.3337857 11.3176331 13.2890429 11.3371006 13.2774429 11.4940828 13.2194429 11.5168639 13.2095 11.5553846 13.1925143 11.5959763 13.2053571 11.5959763 13.2053571 11.5959763 13.2053571 11.2989941 13.3362714 11.2472189 13.3656857 11.2091124 13.3868143 11.1552663 13.4265857 11.1614793 13.4928714 11.1676923 13.5247714 11.2033136 13.5372 11.2335503 13.5247714 11.2642012 13.5098571 11.4278107 13.4497857 11.4638462 13.4357 11.5363314 13.4091857 11.5205917 13.4228571 11.55 13.4286571 11.55 13.4286571 11.2269231 13.5695143 11.2024852 13.5840143 11.1784615 13.5981 11.1656213 13.6329 11.1656213 13.6610714 11.1693491 13.6975286 11.2024852 13.7203143 11.2343787 13.7074714 11.2584024 13.6991857 11.405858 13.6312429 11.4481065 13.6130143 11.4899408 13.5943714 11.5263905 13.6184 11.5263905 13.6184 11.5263905 13.6184 11.2472189 13.7418571 11.2410059 13.7526286 11.2368639 13.7559429 11.2265089 13.7725143 11.2302367 13.7837L10.7414793 13.6105286 10.654497 14.0989714 11.3304734 14.0911C11.3304734 14.0911 11.0633136 15.6177429 10.8533136 16.8050857 10.9257988 17.1149714 10.9510651 17.4149143 10.6739645 17.8184286L10.6739645 17.8184286zM12.5449112 16.1629429C12.4856805 15.9127143 12.1895266 15.3596429 12.3750888 15.3447286 12.4542012 15.3368571 12.896568 15.7300143 13.1028402 15.7300143 13.3086982 15.7300143 13.3625444 15.6351429 13.4010651 15.5680286 13.5534911 15.2908714 13.6338462 15.2527571 13.6338462 15.2527571 13.5787574 15.3186286 13.5307101 15.3998286 13.4453846 15.5696857 13.374142 15.7130286 13.2884024 15.8717 13.2059763 16.0477714 12.9678107 16.5544429 12.4500592 17.2413286 12.4500592 17.2413286 12.5693491 16.9877857 12.5826036 16.3191286 12.5449112 16.1629429L12.5449112 16.1629429zM13.6806509 15.8315143C13.6823077 15.747 13.6678107 15.6931429 13.6429586 15.6869286 13.6288757 15.6948 13.5170414 15.7942286 13.446213 16.0005429 13.3820118 16.2043714 13.3198817 16.3593143 13.1227219 16.8688857 12.7959172 17.7177571 12.5502959 17.8582 12.5502959 17.8582 12.6024852 17.6755 12.4720118 17.4422571 12.4720118 17.4422571 12.7681657 17.1265714 13.6512426 15.5005 13.7833728 15.3476286 13.9159172 15.1976571 13.9469822 15.2573143 13.9469822 15.2573143 13.7970414 15.3770429 13.7195858 15.5957857 13.6806509 15.8315143L13.6806509 15.8315143zM13.8968639 17.9352571C13.921716 17.8395571 13.9283432 16.6609143 13.9283432 16.6609143 13.9656213 17.1033714 14.1176331 18.1237571 14.1176331 18.1237571 13.940355 18.1055286 13.8715976 18.0293 13.8968639 17.9352571L13.8968639 17.9352571zM14.8859763 16.1550714C14.8325444 15.7851143 14.8259172 15.6977 14.7111834 15.5158286 14.7111834 15.5158286 14.9671598 15.7652286 14.9874556 16.2300571 15.0065089 16.6932286 14.9597041 17.8909286 14.926568 18.2149 14.926568 18.2149 14.7248521 18.4713429 14.5836095 18.0330286 14.5836095 18.0330286 14.7248521 18.1208571 14.7786982 17.7782429 14.8325444 17.4339714 14.9402367 16.5258571 14.8859763 16.1550714L14.8859763 16.1550714zM13.2063905 11.1016143C13.4478698 11.1596143 13.5389941 11.1227429 13.6234911 11.1016143 13.6023669 11.1944143 13.4072781 11.1906857 13.4072781 11.1906857 13.4478698 11.2105714 13.5199408 11.2909429 13.5568047 11.3514286 13.6384024 11.4827571 13.444142 11.4090143 13.444142 11.4090143 13.431716 11.2317 13.2063905 11.1016143 13.2063905 11.1016143L13.2063905 11.1016143zM13.2714201 12.2280571C13.2925444 12.3229286 13.3207101 12.5139143 13.3579882 12.6767286 13.3360355 12.7036571 13.2461538 12.7823714 13.166213 12.8503143 13.3492899 12.6957857 13.2908876 12.3266571 13.2714201 12.2280571L13.2714201 12.2280571zM11.2853254 13.8044143C11.3201183 13.8180857 11.3942604 13.8176714 11.416213 13.8098 11.416213 13.8098 11.6017751 13.7468286 11.6299408 13.7389571 11.6986982 13.7161714 11.6978698 13.7269429 11.7156805 13.6755714 11.7334911 13.7915714 11.8022485 13.8425286 11.9140828 13.8578571 12.0495266 13.8769143 12.126568 13.7716857 12.2272189 13.7737571 12.2272189 13.7737571 12.3394675 13.7832857 12.3589349 13.7808 12.3701183 13.8205714 12.381716 13.8499857 12.381716 13.8499857 12.4873373 13.9349143 12.5577515 13.8193286 12.5159172 13.7360571 12.5159172 13.7360571 12.5763905 13.7994429 12.67 13.8052429 12.7913609 13.8110429 13.0543787 13.7406143 13.1831953 13.6975286 13.3236095 13.6490571 13.5957396 13.5446571 13.6313609 13.4572429 13.6586982 13.3926143 13.5220118 13.1515 13.4702367 13.0077429 13.4478698 12.9489143 13.4404142 12.9418714 13.4097633 12.8594286 13.433787 12.9219857 13.4946746 13.0504143 13.567574 13.1925143 13.577929 13.2153 13.590355 13.2376714 13.6007101 13.2612857 13.6537278 13.3603 13.7092308 13.4642857 13.7622485 13.5525286 13.8223077 13.6581714 13.8790533 13.7455857 13.9159172 13.7845286 14.0389349 13.9150286 14.1466272 13.9804857 14.2186982 14.1097429 14.1035503 13.9415429 13.9809467 13.3748 13.9159172 13.1606143 13.849645 12.9451857 13.6338462 12.5545143 13.577929 12.4530143 13.5220118 12.3502714 13.4300592 12.0155286 13.4168047 11.9028429 13.3985799 11.7557714 13.4201183 11.5734857 13.4201183 11.5734857 13.4201183 11.5734857 13.6574556 12.2810857 13.6806509 12.3825857 13.7038462 12.4849143 13.9511243 13.253 14.0016568 13.3603 14.0526036 13.4667714 14.3731953 14.3558286 14.4572781 14.4502857 14.4829586 14.4689286 14.5575148 14.5522 14.625858 14.6350571 14.714497 14.7402857 14.8043787 14.8591857 14.9000592 15.0112286 14.8089349 14.8877714 14.6797041 14.8438571 14.6797041 14.8438571 14.5794675 14.7688714 14.5852663 14.7249571 14.5761538 14.6756571 14.555858 14.5613143 14.4572781 14.4502857 14.4572781 14.4502857 14.409645 14.4134143 14.3682249 14.3616286 14.3292899 14.3028 14.2911834 14.2431429 14.2551479 14.1752 14.2186982 14.1097429 14.2186982 14.1097429 13.9904734 13.9038429 13.847574 13.8342429 13.6876923 13.7567714 13.6056805 13.7124429 13.4905325 13.7617429 13.1334911 13.9212429 12.7623669 13.9378143 12.7300592 13.9328429 12.4073964 13.8810571 12.6074556 14.0339286 12.6074556 14.0339286 12.7843195 14.0695571 12.7673373 14.1329429 13.1923077 14.1532429 13.5874556 14.1731286 13.6404734 14.1789286 13.853787 14.2195286 14.0662722 14.2601286 14.1805917 14.3815143 14.1805917 14.3815143 13.9643787 14.3115 13.8111243 14.2779429 13.5075148 14.3342857 13.0398817 14.4179714 12.6074556 14.0339286 12.6074556 14.0339286 12.315858 13.8997 12.3523077 14.0795 12.3928994 14.1234143 12.4542012 14.1913571 12.5059763 14.2236714 12.5059763 14.2236714 12.3050888 14.1532429 12.3966272 14.2858143 12.3966272 14.2858143 12.532071 14.3558286 12.6231953 14.4341286 12.6231953 14.4341286 13.1715976 14.9391429 13.5617751 15.0228286 13.800355 14.9834714 13.8343195 14.9768429 13.9055621 14.9499143 13.9370414 14.9573714 13.8484024 14.9938286 13.8198225 15.0249 13.79 15.0497571 13.6723669 15.1467 13.3919527 15.196 13.1757396 15.2262429 12.8969822 15.2643571 12.6074556 15.1980714 12.5159172 15.1268143 12.4542012 15.0766857 12.4355621 14.9064143 12.5594083 14.8695429 12.7267456 14.8194143 12.7673373 14.7639 12.7752071 14.6669571 12.7801775 14.6002571 12.6231953 14.4341286 12.6231953 14.4341286 12.3701183 14.2920286 12.2752663 14.3852429 12.2752663 14.3852429L12.3618343 13.8968 12.3394675 13.8968 12.1646746 13.8951429C12.099645 13.8951429 12.1137278 13.8930714 12.04 13.8984571 11.9956805 13.9017714 11.9480473 13.9079857 11.8995858 13.8997 11.8904734 13.8984571 11.8813609 13.8951429 11.8734911 13.8930714L11.6866864 13.8918286C11.6912426 13.8657286 11.6945562 13.8458429 11.6986982 13.8218143 11.6597633 13.8015143 11.6299408 13.7832857 11.6299408 13.7832857 11.6299408 13.7832857 11.5823077 13.7845286 11.5400592 13.7994429 11.4899408 13.8176714 11.3992308 13.8441857 11.3992308 13.8441857L11.2853254 13.8044143zM13.8869231 14.7427714C13.8869231 14.7427714 13.6321893 14.9113857 13.2623077 14.6976143 12.8895266 14.4846714 12.7561538 14.3815143 12.7246746 14.3558286 12.7246746 14.3558286 13.0924852 14.5294143 13.3352071 14.4763857 13.577929 14.4258429 13.6740237 14.3748857 13.8989349 14.3777857 13.8989349 14.3777857 13.5294675 14.4879857 13.5518343 14.6864286 13.5601183 14.7614143 13.7171006 14.7821286 13.8869231 14.7427714L13.8869231 14.7427714zM7.36201183 11.9256286C7.36201183 11.9256286 7.39100592 12.2955857 7.52189349 12.3614571 7.66934911 12.4356143 7.76378698 12.6141714 7.96591716 12.5159857 7.96591716 12.5159857 8.70775148 11.8212286 8.70816568 11.5279143 8.6083432 11.4645286 8.5752071 11.3601286 8.56857988 11.3448 8.63029586 11.4732286 8.75414201 11.542 8.83325444 11.4719857 9.01633136 11.3108286 9.01467456 11.2801714 9.01467456 11.2801714 9.12775148 11.3017143 9.25159763 11.1683143 9.24662722 11.1339286 9.24289941 11.0966429 9.22467456 11.0626714 9.19982249 11.0456857 9.32035503 11.1285429 9.36964497 10.9615857 9.36964497 10.9615857 9.42763314 10.9276143 9.44378698 10.8861857 9.44378698 10.8861857L9.42390533 10.8650571C9.60739645 10.8861857 9.76852071 10.7946286 9.76852071 10.7946286 9.78715976 10.7780571 9.78881657 10.7643857 9.78218935 10.7515429 9.76852071 10.7242 9.71591716 10.7084571 9.71591716 10.7084571 9.71591716 10.7084571 9.26940828 10.7370429 9.2416568 10.7436714 9.14390533 10.7672857 9.18946746 10.8567714 9.18698225 10.9135286 9.18284024 10.9856143 9.15674556 11.0100571 9.15674556 11.0100571 9.18532544 10.9466714 9.17497041 10.9243 9.14721893 10.8621571 9.12112426 10.8058143 9.07597633 10.8265286 9.09295858 10.7888286 9.11076923 10.7494714 9.14390533 10.7084571 9.24414201 10.6939571 9.32284024 10.6844286 9.42307692 10.5381857 9.42928994 10.4296429 9.43011834 10.4010571 9.42059172 10.3869714 9.40443787 10.3815857 9.35514793 10.3650143 9.25242604 10.4238429 9.21266272 10.4458 9.17786982 10.4685857 9.02254438 10.5058714 9.02254438 10.5058714 9.02254438 10.5058714 9.08426036 10.4934429 9.15053254 10.4569857 9.21514793 10.4205286 9.34023669 10.3455429 9.37710059 10.3455429 9.4135503 10.3455429 9.54733728 10.3173714 9.5887574 10.3173714 9.81201183 10.2436286 9.70639053 10.1504143 9.65668639 10.1466857 9.63390533 10.1450286 9.39615385 10.1914286 9.36301775 10.1914286 9.32118343 10.1914286 8.9239645 10.3778571 8.87467456 10.4014714 8.82579882 10.4271571 8.69905325 10.7192286 8.68289941 10.7751571 8.66591716 10.8306714 8.60254438 10.9976286 8.60254438 10.9976286 8.49112426 10.9707 8.4343787 11.0804857 8.38923077 11.1355857 8.33579882 11.1977286 8.1191716 11.4769571 8.08189349 11.5171429 8.04378698 11.5594 7.74142012 11.7462429 7.74142012 11.7462429 7.66189349 11.8871 7.71449704 11.9919143 7.70704142 11.9778286 7.70704142 11.9778286 7.63786982 11.9011857 7.66023669 11.7802143 7.66023669 11.7802143 7.68964497 11.6973571 7.66769231 11.6377 7.64822485 11.6095286 7.61923077 11.5681 7.61011834 11.5540143 7.59147929 11.5291571 7.57449704 11.5088571 7.56621302 11.4985 7.56621302 11.4985 7.31976331 11.3419 7.36201183 11.9256286"/>
    <path d="M8.79349112 13.2219286C8.80094675 13.3060286 8.80923077 13.4000714 8.8187574 13.5015714 8.56071006 13.5347143 8.31260355 13.5798714 8.11668639 13.6184 8.0156213 13.7058143 7.85366864 13.7857714 7.68550296 13.8487429L7.68715976 13.8483286C7.69751479 13.9146143 7.72195266 13.9655714 7.74680473 13.9630857 7.74680473 13.9630857 8.28899408 13.9618429 8.8543787 13.9108857 8.87923077 14.181 8.90698225 14.4826 8.93473373 14.7916571L8.93473373 14.79C8.96289941 14.8554571 9.01633136 15.3542571 8.98775148 15.4010714 8.98899408 15.4006571 8.98899408 15.3981714 8.98899408 15.3977571 8.98899408 15.3998286 8.98899408 15.4010714 8.98982249 15.4023143 8.98899408 15.4023143 8.98899408 15.4019 8.98775148 15.4010714 8.47372781 14.6698571 7.72609467 14.3811 7.29325444 14.2692429 7.1735503 14.2601286 7.10065089 14.2588857 7.07869822 14.4536 7.07869822 14.4536 7.05426036 14.7502286 7.06502959 14.9084857 7.07455621 15.0315286 7.13627219 15.2457143 7.21621302 15.2714 7.29615385 15.2970857 7.39266272 15.2788571 7.39266272 15.2788571 7.36905325 15.2846571 7.29532544 15.3314714 7.24893491 15.3629571 7.20337278 15.3944429 7.10189349 15.4520286 7.06171598 15.5224571 7.02071006 15.5928857 7.21331361 15.5431714 7.21331361 15.5431714 7.22159763 15.6015857 7.31769231 15.5804571 7.31769231 15.5804571 7.31769231 15.5804571 7.32639053 15.7221429 7.63704142 15.5560143 7.81224852 15.4628 7.89840237 15.3787 8.03343195 15.3364429 7.98869822 15.3509429 7.90544379 15.4159857 7.84911243 15.4628 7.74431953 15.5469 7.67349112 15.6177429 7.57449704 15.6956286 7.48337278 15.7664714 7.18017751 15.8911714 6.95485207 15.9512429 6.99627219 15.9955714 7.09071006 15.9620143 7.09071006 15.9620143 7.08946746 16.5105286 7.92822485 16.0515 7.92822485 16.0515 7.25183432 16.6029143 6.98260355 16.0568857 6.81609467 16.2797714 7.59976331 16.8117143 8.45053254 15.8741857 8.62035503 15.6906571 8.81627219 15.4818571 9.06727811 15.5228714 9.06727811 15.5228714 9.06727811 15.5228714 9.0639645 15.7291857 9.04118343 15.9914286 9.04118343 15.9897714 9.04201183 15.9864571 9.04201183 15.9848 9.11284024 16.7765 9.17248521 17.4294143 9.18076923 17.5209714 9.20727811 17.7799 9.20727811 17.8747714 9.11408284 17.9207571 8.98609467 17.9845571 8.90698225 17.9766857 8.77816568 17.8863714 8.69781065 17.8300286 8.62905325 17.7637429 8.56857988 17.6941429 8.56816568 17.6945571 8.56733728 17.6962143 8.56733728 17.6966286L8.56857988 17.6941429C8.48076923 17.5918143 8.41656805 17.4865857 8.37473373 17.4074571 8.48449704 17.4791286 8.57230769 17.4832714 8.62863905 17.4716714 8.63526627 17.4704286 8.64893491 17.4667 8.64893491 17.4667 8.68207101 17.4567571 8.70153846 17.4447429 8.70319527 17.4426714L8.74130178 17.4149143 8.70153846 17.3904714C8.69408284 17.3855 8.68786982 17.3813571 8.6804142 17.3768 8.6804142 17.3776286 8.6795858 17.3776286 8.6795858 17.3776286L8.6795858 17.3768C8.28982249 17.1166286 8.21236686 16.6638143 8.19704142 16.5039 8.21029586 16.6145143 8.26455621 16.8477571 8.48449704 16.9724571 8.86224852 16.4952 9.00059172 16.1496857 8.80260355 15.9218286 8.7135503 15.8195 8.39088757 15.9988857 8.19 16.1385 8.04378698 16.2408286 7.89840237 16.3489571 7.67017751 16.5382857 7.46390533 16.7098 7.03272189 17.1356857 7.03272189 17.1356857 7.03272189 17.1356857 7.50118343 16.5184 7.25266272 16.5486429 7.09568047 16.6244571 7.00828402 16.8647429 6.87491124 17.1004714 6.76556213 17.3196286 6.77136095 17.3672714 6.56674556 17.4633857 6.55639053 17.9021143 7.38727811 17.4111857 7.68757396 17.1104143 7.86609467 16.9318571 7.92076923 16.8664 7.97213018 16.7209857L7.95639053 16.7632429C7.92201183 16.8610143 7.90337278 16.9550571 7.89508876 17.0449571 7.78076923 17.1448 7.82674556 17.1112429 7.72857988 17.1796 7.72319527 17.1841571 7.71118343 17.1936857 7.69213018 17.2081857 7.55088757 17.3138286 7.05881657 17.6883429 6.62680473 17.8747714 6.43254438 17.9576286 6.64047337 18.2903 6.64047337 18.2903 6.60443787 18.5136 6.92337278 18.7393857 6.92337278 18.7393857 6.92337278 18.7393857 7.08035503 18.792 7.21952663 18.7016857 7.37568047 18.7605143 7.62585799 18.6594286 7.86029586 18.5268571 8.16017751 18.3557571 8.43106509 18.1337 8.43106509 18.1337 8.34656805 18.0475286 8.28236686 18.0255714 8.21236686 17.9965714 8.21236686 17.9965714 8.12414201 17.9667429 7.97171598 17.9965714 7.81763314 18.0255714 7.60431953 18.1125714 7.25017751 18.3412571 7.25017751 18.3412571 7.58650888 18.0396571 7.88928994 17.7140286 7.97751479 17.6183286 7.89343195 17.4128429 7.89343195 17.2106714 7.91207101 17.5528714 8.07940828 17.7836286 8.08189349 17.7877714L8.1564497 17.8896857 8.13822485 17.7645714C8.12331361 17.6651429 8.13449704 17.5400286 8.14733728 17.4480571 8.24757396 17.7488286 8.35236686 17.9427143 8.44680473 18.0715571L8.44721893 18.0715571 8.44721893 18.0728C8.54207101 18.2016429 8.62573964 18.2675143 8.68621302 18.3139143 8.86763314 18.4551857 9.14721893 18.6445143 9.34065089 18.7733571L9.34065089 18.7741857 9.34147929 18.7741857C9.46532544 18.8562143 9.55313609 18.9133857 9.5556213 18.9150429L9.57757396 18.9291286 9.59497041 18.9096571C9.60035503 18.9046857 10.069645 18.4212143 10.3073964 18.1299714 10.4034911 18.0110714 10.5774556 17.7973 10.6383432 17.1638571 10.6714793 17.2516857 10.7087574 17.3693429 10.7174556 17.4712571L10.7232544 17.5421C10.722426 17.5508 10.7215976 17.5549429 10.7199408 17.5628143L10.7232544 17.5408571 10.7282249 17.5959571 10.777929 17.4795429C10.78 17.4754 10.8843787 17.2255857 10.8363314 16.9012 10.8027811 16.6725143 10.6938462 16.4065429 10.419645 16.1621143L10.3479882 16.0974857 10.3686982 16.1931857C10.3686982 16.1985714 10.5 16.8158571 10.084142 17.2318L10.0518343 17.2653571 10.094497 17.284C10.1002959 17.2869 10.2444379 17.3453143 10.4072189 17.1758714 10.3686982 17.3183857 10.285858 17.5499714 10.1214201 17.7326714 10.016213 17.8495 9.9412426 17.8764286 9.8008284 17.8416286 9.69976331 17.8184286 9.67905325 17.7260429 9.64633136 17.4691857 9.6247929 17.2985 9.33485207 15.2233429 9.14680473 13.8773286 9.72005917 13.8006857 10.2630769 13.6755714 10.2630769 13.6755714 10.2895858 13.6722571 10.3028402 13.6117714 10.2949704 13.5413429 10.2862722 13.4692571 10.2597633 13.4137429 10.2336686 13.4158143 10.2336686 13.4158143 9.66828402 13.4174714 9.09047337 13.4721571 9.07680473 13.3748 9.0639645 13.2861429 9.05236686 13.2053571 9.07307692 13.2057714 9.09502959 13.2070143 9.11201183 13.2057714 9.05402367 13.2090857 8.97201183 13.1999714 8.89952663 13.1999714 8.8539645 13.1999714 8.82538462 13.2090857 8.79349112 13.2219286M7.93733728 12.8855286C7.93733728 12.8855286 7.5964497 13.0276286 7.48171598 13.0988857 7.27295858 13.224 7.19840237 13.4468857 7.18804734 13.5210429 7.17023669 13.6565143 7.15698225 13.7961286 7.49207101 13.6780571 8.09473373 13.4667714 8.0860355 13.4241 8.0860355 13.4241 7.99532544 13.3586429 8.09804734 12.9141143 8.09804734 12.9141143 8.06905325 12.8722714 7.93733728 12.8855286 7.93733728 12.8855286"/>
    <polyline points="12.338 3.514 13.906 3.513 13.907 3.515 13.558 5.039 13.556 5.046 13.557 5.043 13.556 5.046 13.56 5.039 14.529 3.816 14.533 3.816 15.511 5.044 15.156 3.516 15.158 3.515 16.727 3.514 15.31 2.839 16.29 1.611 14.879 2.297 14.533 .765 14.189 2.295 12.779 1.607 12.776 1.61 13.755 2.836 13.755 2.837 12.338 3.514"/>
    <path d="M13.9283432 24.2195571C12.9268047 24.9930286 11.6299408 25.4582714 10.2108876 25.4582714 8.79349112 25.4582714 7.49538462 24.9930286 6.49343195 24.2195571 5.49230769 24.9930286 4.19461538 25.4582714 2.77556213 25.4582714 2.66786982 25.4582714 2.58130178 25.4557857 2.47443787 25.4512286 2.82733728 25.8622 3.21213018 26.2441714 3.62798817 26.5934143 4.7243787 26.4513143 5.68863905 26.0270857 6.49343195 25.4056571 7.49538462 26.1787143 8.79349112 26.6456143 10.2108876 26.6456143 11.6299408 26.6456143 12.9268047 26.1787143 13.9283432 25.4056571 14.7339645 26.0270857 15.6998817 26.4504857 16.7954438 26.5925857 17.209645 26.2433429 17.5948521 25.8622 17.9473373 25.4512286 17.8413018 25.4557857 17.7555621 25.4582714 17.6470414 25.4582714 16.2284024 25.4582714 14.9302959 24.9930286 13.9283432 24.2195571M7.17934911 8.85701429C7.17934911 8.85701429 7.08946746 8.9117 7.03272189 8.90465714 7.03272189 8.90465714 6.91715976 8.99248571 6.88153846 9.09357143 6.86207101 9.14701429 6.84964497 9.16938571 6.81982249 9.19921429 6.78668639 9.23442857 6.75023669 9.25141429 6.75023669 9.25141429 6.75023669 9.27295714 6.74402367 9.29408571 6.73325444 9.31728571 6.70964497 9.36202857 6.67443787 9.42334286 6.64337278 9.45441429 6.59491124 9.50371429 6.58952663 9.56171429 6.59905325 9.58077143 6.62473373 9.61681429 6.59905325 9.63214286 6.58869822 9.67895714 6.5795858 9.71458571 6.60195266 9.79744286 6.60029586 9.83348571 6.59491124 9.9296 6.5812426 9.94368571 6.55763314 9.98552857 6.53236686 10.0298571 6.57088757 10.0791571 6.57088757 10.0791571 6.56011834 10.0903429 6.53319527 10.1048429 6.51497041 10.1089857 6.5795858 10.2668286 6.76142012 10.2477714 6.83763314 10.2382429 6.86497041 10.2353429 6.94905325 10.2432143 6.9991716 10.2486 7.05881657 10.2552286 7.17106509 10.2817429 7.22284024 10.2709714 7.37816568 10.2419714 7.32887574 10.0949 7.32390533 10.0476714 7.31230769 9.99837143 7.22408284 9.93125714 7.22408284 9.93125714 7.22408284 9.93125714 7.30029586 9.96357143 7.36905325 9.96481429L7.36076923 9.92752857C7.36076923 9.92752857 7.33840237 9.91965714 7.30029586 9.91012857 7.25597633 9.89977143 7.15698225 9.89645714 7.15698225 9.89645714 7.15698225 9.89645714 7.29532544 9.86994286 7.38852071 9.88237143L7.36905325 9.76015714C7.5608284 9.7643 7.5235503 9.65244286 7.49621302 9.59237143 7.48005917 9.5584 7.45065089 9.48258571 7.43035503 9.4076 7.41627219 9.35167143 7.40260355 9.30692857 7.40260355 9.29947143 7.40260355 9.29408571 7.42248521 9.25307143 7.41627219 9.22117143 7.39266272 9.09812857 7.39763314 8.88932857 7.39763314 8.88932857 7.35248521 8.88932857 7.29822485 8.85701429 7.29822485 8.85701429 7.29822485 8.85701429 7.23816568 8.88394286 7.17934911 8.85701429M7.26508876 9.39765714C7.24106509 9.41215714 7.22408284 9.41961429 7.19218935 9.40304286 7.15242604 9.3844 7.19218935 9.34172857 7.08946746 9.32681429 7.08946746 9.32681429 7.1064497 9.31024286 7.15698225 9.29781429 7.23733728 9.27378571 7.29739645 9.30941429 7.29739645 9.30941429 7.29739645 9.30941429 7.29159763 9.38232857 7.26508876 9.39765714M7.30443787 9.28745714C7.25597633 9.28041429 7.23153846 9.25182857 7.16526627 9.2655 7.09899408 9.27751429 7.04059172 9.28372857 6.98301775 9.2684 6.98301775 9.2684 7.05260355 9.25017143 7.09485207 9.22572857 7.13627219 9.20045714 7.2452071 9.15612857 7.39514793 9.2365 7.39514793 9.2365 7.35248521 9.29408571 7.30443787 9.28745714"/>
    <path d="M13.9283432 21.8469429C12.9268047 22.62 11.6299408 23.0877286 10.2108876 23.0877286 8.79349112 23.0877286 7.49538462 22.62 6.49343195 21.8469429 5.49230769 22.62 4.19461538 23.0877286 2.77556213 23.0877286 2.07970414 23.0877286 1.42278107 22.9758714.806449704 22.7695571L.805621302 22.7695571C1.00857988 23.2476429 1.24674556 23.7066714 1.51680473 24.1433286 1.9260355 24.2286714 2.33816568 24.2738286 2.77556213 24.2738286 4.19461538 24.2738286 5.49230769 23.8069286 6.49343195 23.0334571 7.49538462 23.8069286 8.79349112 24.2738286 10.2108876 24.2738286 11.6299408 24.2738286 12.9268047 23.8069286 13.9283432 23.0334571 14.9302959 23.8069286 16.2284024 24.2738286 17.6470414 24.2738286 18.0848521 24.2738286 18.4949112 24.2286714 18.906213 24.1433286 19.175858 23.7066714 19.4140237 23.2476429 19.6161538 22.7695571 18.9998225 22.9742143 18.3428994 23.0877286 17.6470414 23.0877286 16.2284024 23.0877286 14.9302959 22.62 13.9283432 21.8469429M5.98023669 9.89811429C5.9852071 9.85627143 5.98769231 9.84591429 5.99639053 9.80655714 6.01544379 9.71085714 6.06100592 9.63545714 6.06100592 9.63545714 5.95828402 9.9818 6.11940828 10.1044286 6.09248521 10.0853714 6.09248521 10.0853714 6.04071006 9.94948571 6.1247929 9.84467143 6.1247929 9.84467143 6.10076923 9.95528571 6.13142012 9.98552857 6.13142012 9.98552857 6.13556213 9.8832 6.1956213 9.80572857 6.24615385 9.7382 6.26106509 9.70298571 6.27680473 9.63711429 6.29668639 9.54928571 6.30786982 9.51241429 6.32857988 9.47802857 6.32857988 9.47802857 6.30704142 9.5265 6.3012426 9.62468571 6.2991716 9.68434286 6.29751479 9.69055714 6.28053254 9.7382 6.24532544 9.83721429 6.17988166 10.0261286 6.32526627 10.1263857 6.32526627 10.1263857 6.24863905 9.96812857 6.32650888 9.86787143 6.32650888 9.86787143 6.30911243 10.0261286 6.39609467 10.0601 6.39609467 10.0601 6.36751479 9.93954286 6.41349112 9.84094286 6.44497041 9.77507143 6.44497041 9.69718571 6.44621302 9.6686 6.44621302 9.6686 6.4743787 9.77507143 6.44621302 9.84591429 6.42177515 9.9035 6.42881657 9.98428571 6.47106509 10.0244714 6.47106509 10.0244714 6.4412426 9.97392857 6.49384615 9.90184286 6.54727811 9.83058571 6.57792899 9.74482857 6.56011834 9.67025714 6.53609467 9.56875714 6.46568047 9.52152857 6.58952663 9.35581429 6.58952663 9.35581429 6.56881657 9.47802857 6.58745562 9.54762857 6.58331361 9.52857143 6.58207101 9.50122857 6.59159763 9.46394286 6.6160355 9.36575714 6.64337278 9.3931 6.6160355 9.28621429 6.59822485 9.21827143 6.67029586 9.15157143 6.67029586 9.15157143 6.67029586 9.15157143 6.66201183 9.16275714 6.66035503 9.20045714 6.66035503 9.21827143 6.67402367 9.24354286 6.68065089 9.26052857 6.68852071 9.28331429 6.69142012 9.33261429 6.69142012 9.33261429 6.71254438 9.29822857 6.70508876 9.21661429 6.70260355 9.15944286 6.69763314 9.08652857 6.73573964 9.01568571 6.73573964 9.01568571 6.73573964 9.01568571 6.72828402 9.04302857 6.73242604 9.11967143 6.73491124 9.17104286 6.75023669 9.21247143 6.75023669 9.25141429 6.75023669 9.25141429 6.7883432 9.24188571 6.79331361 9.14204286 6.79911243 9.05711429 6.82686391 9.02521429 6.81982249 8.95602857 6.86704142 9.01195714 6.83928994 9.14038571 6.83928994 9.14038571 6.90556213 9.05835714 6.87408284 9.01858571 6.86331361 8.95022857 6.85295858 8.88767143 6.92420118 8.84375714 6.92420118 8.84375714 6.8939645 8.87317143 6.90390533 8.94318571 6.94035503 8.9465 6.97349112 8.95022857 7.03272189 8.90465714 7.03272189 8.90465714 7.03272189 8.90465714 7.14828402 8.87855714 7.14828402 8.77954286 7.14828402 8.77954286 7.19633136 8.8914 7.27047337 8.7986 7.27047337 8.7986 7.27130178 8.83588571 7.29822485 8.85701429 7.39431953 8.88891429 7.3516568 8.7174 7.3516568 8.7174 7.3516568 8.7174 7.37568047 8.73148571 7.39514793 8.75924286 7.44526627 8.82801429 7.41751479 8.70414286 7.41751479 8.70414286 7.3495858 8.5811 7.08366864 8.52268571 6.95650888 8.5086 6.83059172 8.49327143 6.68769231 8.48664286 6.5439645 8.49327143 6.34431953 8.50528571 6.25029586 8.58897143 6.15792899 8.66644286 6.06970414 8.73977143 5.9864497 8.90341429 5.90195266 9.26591429 5.81828402 9.62924286 5.72591716 9.918 5.72591716 9.96481429 5.73254438 10.2100714 5.95994083 10.0750143 5.98023669 9.89811429M8.0164497 14.1176143C7.74100592 13.9854571 7.51650888 13.9063286 7.51650888 13.9063286 7.10189349 14.0090714 7.36076923 14.1739571 7.4183432 14.1984 7.60763314 14.2767 7.88970414 14.4233571 8.18668639 14.6118571 8.49112426 14.8061571 8.92147929 15.0882857 8.93266272 14.8024286 8.78230769 14.5310714 8.3639645 14.2825 8.0164497 14.1176143M5.25207101 4.75641429C4.7947929 4.75641429 4.38017751 4.57992857 4.06911243 4.29531429 4.4456213 4.76677143 5.03544379 5.06381429 5.68656805 5.06381429 6.82230769 5.06381429 7.74100592 4.14368571 7.74100592 3.00771429 7.74100592 1.87174286 6.82230769.950785714 5.68656805.950785714 5.0408284.950785714 4.4456213 1.25445714 4.06911243 1.72135714 4.38017751 1.43508571 4.7947929 1.26025714 5.25207101 1.26025714 6.21633136 1.26025714 6.99792899 2.04242857 6.99792899 3.00771429 6.99792899 3.97258571 6.21633136 4.75641429 5.25207101 4.75641429M5.82242604 10.5792C5.80585799 10.4495286 5.91686391 10.4155571 5.97360947 10.3927714 5.97360947 10.3927714 5.89035503 10.3944286 5.76029586 10.5025571 5.71887574 10.5365286 5.64763314 10.6024 5.60538462 10.6525286 5.46538462 10.8286 5.28189349 11.0858714 5.20485207 11.3510143 5.05159763 11.8813 5.0383432 12.1041857 5.02384615 12.4111714 5.01473373 12.6054714 4.96088757 13.2989857 4.94597633 13.7418571 4.9364497 14.0331 4.92195266 14.2191143 4.91946746 14.3562429 4.91325444 14.4921286 4.88881657 18.4560143 4.88881657 18.4560143L4.96254438 17.5421 5.1783432 15.3281571C5.1783432 15.3281571 5.28189349 14.4838429 5.30218935 13.9519 5.32331361 13.4228571 5.36514793 12.4111714 5.38627219 12.2653429 5.40656805 12.1178571 5.48982249 11.7412714 5.56686391 11.6509571L5.46289941 14.9445286C5.46289941 14.9445286 5.48982249 15.6624857 5.49727811 15.9214143 5.49727811 15.9214143 5.47035503 17.5317429 5.47035503 17.6025857L5.67911243 18.7045857C5.7416568 18.7373143 5.84023669 18.7460143 5.95828402 18.6565286L5.83195266 18.3213714 5.65136095 17.3378571C5.65136095 17.3378571 5.7056213 17.3316429 5.74869822 17.2881429 5.79218935 17.2463 5.81828402 17.1427286 5.81828402 17.1427286 5.83195266 16.8075714 6.15295858 14.8952286 6.2647929 14.5600714 6.37621302 14.2253286 6.41846154 13.3603 7.25349112 12.8432714 7.25349112 12.8432714 7.15698225 12.7463286 6.98964497 12.7185714 6.82230769 12.6899857 6.86497041 12.6754857 6.86497041 12.6754857 6.9283432 12.5735714 6.75272189 12.3266571 6.75272189 12.3266571 6.55266272 12.0014429 6.43792899 11.9484143 6.27887574 11.7640571 6.06970414 11.5233571 6.2647929 11.4487857 6.2647929 11.4487857 6.3012426 11.6111857 6.36171598 11.6857571 6.44497041 11.8013429 6.52946746 11.9177571 6.75272189 12.3266571 6.75272189 12.3266571 6.75272189 12.3266571 6.83763314 11.7371286 6.42757396 11.2524143 6.32692308 11.1339286 6.23 11.0365714 6.14426036 10.9549571 6.10781065 10.9214 6.07467456 10.8890857 6.04319527 10.8600857 5.99639053 10.817 5.90153846 10.7213 5.89449704 10.7097 5.88289941 10.6972714 5.88372781 10.6881571 5.87585799 10.6761429 5.91023669 10.7097 5.96284024 10.7445 6.04153846 10.7780571 6.36668639 10.9193286 6.68976331 10.9860286 6.85213018 10.8455857 6.90639053 10.8078857 6.91094675 10.6765571 6.8939645 10.6401 6.86828402 10.5812714 6.8256213 10.5551714 6.86828402 10.4329571 6.88278107 10.3919429 6.89769231 10.3438857 6.78751479 10.3380857 6.65952663 10.3306286 6.56260355 10.2498429 6.53982249 10.2104857 6.52615385 10.1885286 6.51497041 10.1085714 6.51497041 10.1085714 6.51497041 10.1085714 6.46899408 10.1189286 6.4412426 10.1081571 6.4412426 10.1081571 6.39195266 10.1711286 6.35053254 10.1495857 6.35053254 10.1495857 6.26313609 10.2042714 6.16704142 10.1562143L6.03118343 10.1976429C6.03118343 10.2892 5.97360947 10.3927714 5.97360947 10.3927714 5.97360947 10.3927714 5.86384615 10.5315571 5.82242604 10.5792M6.37704142 12.4675143C6.51994083 12.8084714 6.76970414 12.7355571 6.76970414 12.7355571 6.29544379 12.9567857 6.11940828 13.7899143 6.11940828 13.7899143 6.16289941 13.1055143 6.4743787 12.9186714 6.37704142 12.4675143M6.03118343 10.9562C6.03118343 10.9562 5.97609467 10.933 5.89035503 10.8948857 5.81911243 10.8621571 5.72177515 10.8265286 5.66544379 10.7213 5.6335503 10.6413429 5.72467456 10.5365286 5.76650888 10.5025571 5.76650888 10.5025571 5.63065089 10.6525286 6.03118343 10.9562M10.2113018 27.8308857C8.79349112 27.8308857 7.49538462 27.3648143 6.49384615 26.5913429 6.00923077 26.9658571 5.45461538 27.2674571 4.85071006 27.4804L4.84946746 27.4804C5.22514793 27.7119857 5.61781065 27.9199571 6.02372781 28.1043143 6.18733728 28.0032286 6.34473373 27.8930286 6.49384615 27.7791 7.49538462 28.5500857 8.79349112 29 10.2113018 29 11.6299408 29 12.9276331 28.5500857 13.9308284 27.7791 14.0791124 27.8930286 14.2352663 28.0032286 14.3992899 28.1043143 14.8043787 27.9199571 15.1966272 27.7128143 15.5731361 27.4804 14.9688166 27.2674571 14.413787 26.9658571 13.9308284 26.5913429 12.9276331 27.3648143 11.6299408 27.8308857 10.2113018 27.8308857M13.6160355 9.94782857C13.590355 9.88651429 13.5853846 9.74068571 13.5609467 9.6483 13.5481065 9.59858571 13.4959172 9.52442857 13.4453846 9.45441429 13.4453846 9.45441429 13.497574 9.51904286 13.596568 9.57952857 13.6864497 9.6338 13.7601775 9.7498 13.7622485 9.802 13.7622485 9.802 13.7349112 9.75435714 13.6740237 9.76347143 13.6288757 9.76885714 13.6023669 9.8629 13.6160355 9.94782857 13.7071598 10.0547143 13.7299408 9.90888571 13.7299408 9.90888571 13.7299408 9.90888571 13.7705325 9.9412 13.7494083 9.99712857 13.7494083 9.99712857 13.8069822 10.0609286 13.8761538 9.97765714 13.9208876 9.9238 13.925858 9.72867143 13.7171006 9.57952857 13.5091716 9.42872857 13.5149704 9.31521429 13.5149704 9.31521429 13.5149704 9.31521429 13.5762722 9.40552857 13.6943195 9.4511 13.8111243 9.4975 13.8670414 9.55922857 13.9001775 9.63752857 13.9001775 9.63752857 13.8798817 9.59237143 13.7763314 9.57662857 13.7763314 9.57662857 14.0207101 9.83307143 13.9457396 9.99257143 13.9457396 9.99257143 14.0480473 9.90681429 13.9821893 9.76181429 13.9821893 9.76181429 14.0592308 9.82727143 14.0592308 9.89107143 14.0592308 9.89107143 14.14 9.78294286 13.9652071 9.6019 13.8740828 9.5062 13.8831953 9.45855714 13.8637278 9.42292857 13.8446746 9.38647143 13.8214793 9.36741429 13.7622485 9.30775714 13.7038462 9.24975714 13.7001183 9.18347143 13.6678107 9.10185714 13.6678107 9.10185714 13.6876923 9.15405714 13.7527219 9.19051429 13.7527219 9.19051429 13.7779882 9.02728571 13.7204142 8.95644286 13.7204142 8.95644286 13.7825444 9.02521429 13.7986982 9.08984286 13.8152663 9.15405714 13.8571006 9.22945714 13.8860947 9.26881429 13.9159172 9.30775714 13.9494675 9.367 13.9357988 9.47057143 13.921716 9.57662857 14.0169822 9.60562857 14.0397633 9.62841429 14.0625444 9.65078571 14.1768639 9.73861429 14.1602959 9.87615714 14.1602959 9.87615714 14.2228402 9.78377143 14.1250888 9.62178571 14.0277515 9.45855714 14.0683432 9.42002857 14.0753846 9.40304286 14.0753846 9.40304286 14.0948521 9.51034286 14.1830769 9.54597143 14.1830769 9.54597143 14.2054438 9.48714286 14.0625444 9.3177 13.9192308 9.14825714 13.8214793 8.98502857 13.8272781 8.78658571 13.8272781 8.78658571 13.8343195 8.86115714 13.9494675 8.92868571 13.9494675 8.92868571 13.9088757 8.82884286 13.8931361 8.7667 13.8769822 8.70414286 13.8479882 8.47048571 13.4793491 8.40088571 13.3579882 8.39301429 12.9073373 8.468 12.8029586 8.54381429 12.6994083 8.6188 12.5797041 8.7609 12.5925444 8.92412857 12.5950296 8.95395714 12.6749704 9.12008571 12.6944379 9.13458571 12.6960947 9.15405714 12.6960947 9.17311429 12.6969231 9.19217143 12.6977515 9.2191 12.6977515 9.2394 12.6969231 9.24437143 12.6944379 9.26591429 12.67 9.3177 12.6923669 9.33717143 12.7039645 9.34752857 12.7105917 9.36782857 12.7105917 9.38978571 12.7105917 9.4511 12.6451479 9.68641429 12.6451479 9.73032857 12.6451479 9.77424286 12.6550888 9.82975714 12.7325444 9.82022857 12.7615385 9.81484286 12.7843195 9.80821429 12.8004734 9.80075714 12.8029586 9.82478571 12.8013018 9.8832 12.7988166 9.9035 12.8273964 9.87574286 12.8621893 9.8803 12.8936686 9.8803 12.945858 9.8803 13.0373964 9.89024286 13.0373964 9.89024286 13.0373964 9.89024286 12.9607692 9.90722857 12.9073373 9.918 12.8555621 9.92752857 12.8319527 9.92297143 12.8319527 9.92297143L12.8215976 9.9731C12.8215976 9.9731 12.9350888 9.96522857 12.9868639 9.92504286 12.9868639 9.92504286 12.958284 9.98055714 12.9176923 9.99712857 12.8667456 10.0178429 12.8427219 9.97724286 12.8215976 9.9731 12.8215976 9.9731 12.871716 9.98967143 12.8754438 10.0505714 12.8816568 10.1139571 12.8476923 10.2088286 12.9471006 10.2179429 12.9980473 10.2233286 13.0576923 10.2270571 13.1136095 10.2274714 13.1678698 10.2274714 13.2179882 10.2245714 13.2469822 10.2158714 13.302071 10.1997143 13.5721302 10.0828857 13.6160355 9.94782857M13.0295266 9.35581429C12.9959763 9.38978571 13.0212426 9.44405714 12.943787 9.44944286 12.8754438 9.45482857 12.8530769 9.34918571 12.8530769 9.34918571 12.8530769 9.34918571 12.9363314 9.30982857 13.0050888 9.31355714 13.0692899 9.31728571 13.0871006 9.338 13.0871006 9.338 13.0871006 9.338 13.0547929 9.33137143 13.0295266 9.35581429M12.8054438 9.33592857C12.7631953 9.33717143 12.7325444 9.31438571 12.7325444 9.31438571 12.8046154 9.26052857 12.9263905 9.21827143 12.9930769 9.22117143 13.1152663 9.22697143 13.1670414 9.31687143 13.1670414 9.31687143 12.958284 9.23525714 12.8485207 9.33302857 12.8054438 9.33592857M13.2030769 9.07327143C13.170355 9.06415714 13.0431953 9.11345714 12.9268047 9.06788571 12.812071 9.06788571 12.6857396 8.93655714 12.6857396 8.93655714 12.6774556 8.8972 12.6832544 8.88932857 12.7076923 8.89554286 12.731716 8.90341429 12.7470414 8.94318571 12.7656805 8.9697 12.7843195 8.99704286 12.8360947 9.04054286 12.9268047 9.06788571 12.9268047 9.00864286 12.8870414 8.96928571 12.8870414 8.96928571 12.8870414 8.96928571 12.9379882 9.02231429 12.9881065 9.03474286 13.2900592 9.10185714 13.1305917 8.96224286 13.1305917 8.96224286 13.3505325 9.06084286 13.2859172 9.1785 13.3418343 9.30568571 13.3149112 9.26591429 13.308284 9.2075 13.2859172 9.16234286 13.2457396 9.08197143 13.2030769 9.07327143 13.2030769 9.07327143"/>
    <path d="M18.5785799 20.2962714L16.7184024 20.2962714 16.7184024 19.1615429 14.8602959 19.1615429 14.8602959 20.2962714 13.0009467 20.2962714 13.0009467 19.1615429 11.1407692 19.1615429 11.1407692 20.2962714 9.28142012 20.2962714 9.28142012 19.1615429 7.42289941 19.1615429 7.42289941 20.2962714 5.56272189 20.2962714 5.56272189 19.1615429 3.70337278 19.1615429 3.70337278 20.2962714 1.84443787 20.2962714 1.84443787 19.1615429.0074556213 19.1615429C.0347928994 19.9358429.148698225 20.6886.33964497 21.4090429 1.08065089 21.7251429 1.90159763 21.9012143 2.77473373 21.9012143 4.19213018 21.9012143 5.48982249 21.4347286 6.49177515 20.6620857 7.49455621 21.4347286 8.79183432 21.9012143 10.2100592 21.9012143L10.2133728 21.9012143C11.6315976 21.9012143 12.9276331 21.4347286 13.9312426 20.6620857 14.9327811 21.4347286 16.2304734 21.9012143 17.6486982 21.9012143 18.5193491 21.9012143 19.3419527 21.7251429 20.0813018 21.4090429 20.2730769 20.6886 20.3873964 19.9358429 20.4155621 19.1615429L18.5785799 19.1615429 18.5785799 20.2962714M6.31656805 10.9396286C6.20349112 10.9176714 6.23745562 10.9922429 6.27431953 11.0295286 6.49715976 11.2524143 6.84094675 11.7010857 6.85544379 12.0983857 6.85544379 12.0983857 7.11431953 12.1949143 7.15946746 11.8187429 7.18639053 11.5929571 7.10852071 11.2126429 7.06792899 11.1086571 7.06792899 11.1086571 7.09650888 11.1637571 7.17810651 11.3750429 7.29159763 11.6741571 7.24893491 11.7802143 7.29822485 12.0532286 7.31893491 11.9968857 7.32804734 11.9264571 7.33508876 11.8560286 7.33840237 11.7876714 7.34337278 11.7155857 7.34544379 11.6534429 7.35538462 11.4496143 7.34792899 11.2731286 7.3139645 11.1969 7.27295858 11.0995429 7.25017751 11.0527286 7.23153846 11.0303571 7.21331361 11.0055 6.94739645 10.6670286 6.94739645 10.6670286 6.93248521 10.7461571 6.89769231 10.8045714 6.85213018 10.8455857 6.75106509 10.9694571 6.53485207 10.9818857 6.31656805 10.9396286M13.2610651 10.8538714C13.3567456 10.8799714 13.4851479 10.9081429 13.6002959 10.9122857 13.7216568 10.9006857 13.8446746 10.8745857 13.9188166 10.8248714 13.9768047 10.7863429 14.0439053 10.7192286 14.1002367 10.6450714 14.1259172 10.6135857 14.1466272 10.5792 14.1652663 10.5460571 14.1723077 10.5340429 14.1739645 10.5232714 14.1789349 10.5112571 14.1930178 10.4619571 14.197574 10.3691571 14.0608876 10.2651714 14.0066272 10.2262286 13.944497 10.0891 13.9395266 10.0791571 13.8831953 10.0978 13.8326627 10.0559571 13.8326627 10.0559571 13.7605917 10.0775 13.7253846 10.0311 13.7253846 10.0311 13.6992899 10.0381429 13.6421302 10.0244714 13.6160355 9.94782857 13.645858 10.0609286 13.4147337 10.1711286 13.3306509 10.2776 13.2594083 10.3670857 13.2113609 10.2552286 13.1674556 10.3066 13.1674556 10.3762 13.1968639 10.3981571 13.1943787 10.4354429 13.1943787 10.4354429 13.1923077 10.5539286 13.1848521 10.5891429 13.1691124 10.6628857 13.143432 10.8248714 13.2610651 10.8538714M31.3131953 12.3506857L30.3530769 15.3708286 32.2861538 15.3708286 31.3131953 12.3506857zM33.3726036 18.7828857L32.7156805 16.7230571 29.9235503 16.7230571 29.2413609 18.7828857 27.5733728 18.7828857 30.5928994 10.4424857 32.0206509 10.4424857 35.0401775 18.7828857 33.3726036 18.7828857 33.3726036 18.7828857zM39.1395266 12.3506857L38.1789941 15.3708286 40.112071 15.3708286 39.1395266 12.3506857zM41.1985207 18.7828857L40.5415976 16.7230571 37.7494675 16.7230571 37.0672781 18.7828857 35.3997041 18.7828857 38.4192308 10.4424857 39.8469822 10.4424857 42.8665089 18.7828857 41.1985207 18.7828857 41.1985207 18.7828857zM46.3917751 11.7943L45.3554438 11.7943 45.3554438 14.0944143 46.3917751 14.0944143C47.402426 14.0944143 47.8447929 13.7406143 47.8447929 12.9066571 47.8447929 12.1104 47.4276923 11.7943 46.3917751 11.7943zM48.0593491 18.7828857L46.1515385 15.4466429 45.3554438 15.4466429 45.3554438 18.7828857 43.7636686 18.7828857 43.7636686 10.4424857 46.5433728 10.4424857C47.7561538 10.4424857 48.3120118 10.5941143 48.804497 11.0618429 49.2597041 11.4790286 49.4875148 12.0851286 49.4875148 12.8685429 49.4875148 13.5131714 49.3350888 14.0314429 49.0323077 14.4353714 48.7162722 14.8401286 48.4259172 15.0170286 47.7308876 15.2067714L49.8027219 18.7828857 48.0593491 18.7828857 48.0593491 18.7828857z"/>
    <polyline points="56.827 18.783 56.827 15.207 52.543 15.207 52.543 18.783 50.952 18.783 50.952 10.442 52.543 10.442 52.543 13.778 56.827 13.778 56.827 10.442 58.419 10.442 58.419 18.783 56.827 18.783"/>
    <path d="M66.0940828 18.3404286C65.4881065 18.7576143 64.7802367 18.9469429 63.7443195 18.9469429 62.6955621 18.9469429 62.013787 18.7700429 61.381716 18.3404286 60.5226627 17.7467571 60.2447337 17.0515857 60.2447337 15.5224571L60.2447337 10.4424857 61.824497 10.4424857 61.824497 15.6107C61.824497 16.8494143 62.4681657 17.4687714 63.7952663 17.4687714 65.0076331 17.4687714 65.6525444 16.8113 65.6525444 15.6107L65.6525444 10.4424857 67.2443195 10.4424857 67.2443195 15.5224571C67.2443195 17.0515857 66.9663905 17.7339143 66.0940828 18.3404286M73.7410651 12.4265C72.8563314 12.0345857 72.1364497 11.8324143 71.5805917 11.8324143 70.8354438 11.8324143 70.3549704 12.1360857 70.3549704 12.6029857 70.3549704 12.9572 70.5575148 13.1722143 71.1510651 13.4879 72.4272189 14.1702286 73.2610059 14.7009286 73.652426 15.0928429 74.006568 15.4466429 74.2211243 16.0026143 74.2211243 16.5838571 74.2211243 18.0748714 73.1346746 18.9469429 71.2902367 18.9469429 71.037574 18.9469429 70.7849112 18.9345143 70.5446746 18.8964 69.9511243 18.8205857 69.6731953 18.7195 68.8008876 18.3151571 68.6878107 18.2646143 68.4981065 18.1763714 68.258284 18.0624429L68.9276331 16.5962857C69.5340237 16.9252286 69.7866864 17.0515857 70.1151479 17.1775286 70.5322485 17.3295714 70.9870414 17.4182286 71.315503 17.4182286 72.0482249 17.4182286 72.528284 17.0897 72.528284 16.5838571 72.528284 16.2300571 72.3385799 15.9897714 71.7955621 15.6869286L70.5069822 14.9536429C69.028284 14.1068429 68.5739053 13.5508714 68.5739053 12.6411 68.5739053 12.2239143 68.6998225 11.7943 68.9023669 11.4790286 69.0415385 11.2640143 69.2560947 11.0494143 69.5215976 10.8596714 70.1279882 10.4424857 70.6457396 10.3037 71.6186982 10.3037 72.1745562 10.3037 72.6670414 10.3666714 73.1852071 10.5183 73.5894675 10.6446571 73.8168639 10.7333143 74.3731361 10.9984571L73.7410651 12.4265"/>
    <polyline points="83.329 18.783 80.55 14.814 80.55 18.783 78.958 18.783 78.958 10.442 80.55 10.442 80.55 14.334 83.165 10.442 84.997 10.442 82.129 14.499 85.149 18.783 83.329 18.783"/>
    <path d="M89.5043195 11.6683571C87.9249704 11.6683571 86.7627219 12.9315143 86.7627219 14.6126857 86.7627219 16.3058714 87.9249704 17.5570143 89.5043195 17.5570143 91.0712426 17.5570143 92.2330769 16.3058714 92.2330769 14.6126857 92.2330769 12.9315143 91.0712426 11.6683571 89.5043195 11.6683571zM89.5043195 18.9469429C86.9018935 18.9469429 85.0702959 17.1526714 85.0702959 14.6126857 85.0702959 12.0345857 86.863787 10.2908571 89.5043195 10.2908571 92.1328402 10.2908571 93.9263314 12.0345857 93.9263314 14.6126857 93.9263314 17.1526714 92.0947337 18.9469429 89.5043195 18.9469429L89.5043195 18.9469429zM102.445621 18.7828857L102.445621 12.6667857C102.382663 13.0964 102.395503 13.1593714 102.13 13.8545429L100.222604 18.7828857 98.7948521 18.7828857 97.0514793 13.9427857C96.8742012 13.4626286 96.8621893 13.3238429 96.7350296 12.6162429L96.7350296 18.7828857 95.2948521 18.7828857 95.2948521 10.4424857 97.2026627 10.4424857 99.4265089 16.3945286C99.5147337 16.6344 99.5528402 16.7230571 99.5905325 17.0387429 99.6410651 16.6468286 99.6667456 16.5962857 99.7421302 16.3945286L102.054201 10.4424857 103.962426 10.4424857 103.962426 18.7828857 102.445621 18.7828857M113.139467 18.7828857L113.139467 12.6667857C113.076509 13.0964 113.088521 13.1593714 112.82426 13.8545429L110.91645 18.7828857 109.488698 18.7828857 107.745325 13.9427857C107.568047 13.4626286 107.555207 13.3238429 107.428876 12.6162429L107.428876 18.7828857 105.989112 18.7828857 105.989112 10.4424857 107.896509 10.4424857 110.120355 16.3945286C110.20858 16.6344 110.246686 16.7230571 110.284793 17.0387429 110.334911 16.6468286 110.359763 16.5962857 110.435976 16.3945286L112.748047 10.4424857 114.655858 10.4424857 114.655858 18.7828857 113.139467 18.7828857M122.374911 18.3404286C121.768935 18.7576143 121.061065 18.9469429 120.025562 18.9469429 118.976391 18.9469429 118.294615 18.7700429 117.662544 18.3404286 116.803491 17.7467571 116.525976 17.0515857 116.525976 15.5224571L116.525976 10.4424857 118.105325 10.4424857 118.105325 15.6107C118.105325 16.8494143 118.748994 17.4687714 120.07568 17.4687714 121.288462 17.4687714 121.933373 16.8113 121.933373 15.6107L121.933373 10.4424857 123.525562 10.4424857 123.525562 15.5224571C123.525562 17.0515857 123.247219 17.7339143 122.374911 18.3404286M130.871006 18.8582857L127.296036 13.4626286C127.270355 13.4249286 127.220237 13.311 127.118757 13.1341 127.067811 13.0326 127.030533 12.9696286 127.017692 12.9572 126.967574 12.8561143 126.941893 12.8055714 126.903787 12.6667857L126.903787 18.7828857 125.387811 18.7828857 125.387811 10.4424857 127.220237 10.4424857 130.719822 15.9268C130.731834 15.9516571 130.769941 16.0154571 130.808047 16.1037 130.84574 16.1923571 130.871006 16.2429 130.883846 16.2677571L130.960059 16.4827714 131.03503 16.6344 131.03503 10.4424857 132.538994 10.4424857 132.538994 18.8582857 130.871006 18.8582857"/>
    <polyline points="134.529 18.783 134.529 10.442 139.608 10.442 139.608 11.794 136.121 11.794 136.121 13.855 138.976 13.855 138.976 15.207 136.121 15.207 136.121 17.431 139.772 17.431 139.772 18.783 134.529 18.783"/>
  </g>
</svg>
